<svg xmlns="http://www.w3.org/2000/svg" viewBox="0 0 600 400" font-family="system-ui, sans-serif" role="img" aria-label="Færdig fortøjning mellem pæle: agtertrosser til begge pæle og fortrosser til kajen">
  <defs>
    <g id="baad">
      <path d="M -35 -13 L 15 -13 Q 38 0 15 13 L -35 13 Q -42 0 -35 -13 Z" fill="#0e7490"/>
      <circle cx="-18" cy="0" r="4" fill="#e0f2f7"/>
    </g>
  </defs>
  <rect width="600" height="400" fill="#e8f6fa"/>
  <rect y="330" width="600" height="70" fill="#94a3b8"/>
  <text x="16" y="372" fill="#334155" font-size="15" font-weight="700">KAJ</text>
  <circle cx="240" cy="336" r="6" fill="#334155"/>
  <circle cx="360" cy="336" r="6" fill="#334155"/>
  <circle cx="250" cy="160" r="9" fill="#8b5e34" stroke="#5d3f22" stroke-width="2"/>
  <circle cx="350" cy="160" r="9" fill="#8b5e34" stroke="#5d3f22" stroke-width="2"/>
  <g stroke="#0f3b4c" stroke-width="2.5" fill="none">
    <path d="M 313 227 L 350 168"/>
    <path d="M 287 227 L 250 168"/>
    <path d="M 287 277 L 240 330"/>
    <path d="M 313 277 L 360 330"/>
  </g>
  <use href="#baad" transform="translate(300 262) rotate(90)"/>
  <g fill="#0f3b4c" font-size="14" font-weight="700">
    <text x="30" y="52">Fire trosser holder båden i ro</text>
    <text x="368" y="196">Agtertrosser til begge pæle</text>
    <text x="30" y="308">Fortrosser til kajen,</text>
    <text x="30" y="328">boven må aldrig nå helt ind</text>
  </g>
</svg>
